<svg width="160" height="160" viewBox="0 0 160 160" fill="none" xmlns="http://www.w3.org/2000/svg">
<path opacity="0.3" d="M115.352 22.5884C120.874 22.5884 125.351 27.0657 125.352 32.5884V127.413C125.351 132.935 120.874 137.413 115.352 137.413H45.6465C40.1238 137.413 35.6467 132.935 35.6465 127.413V32.5884C35.6467 27.0657 40.1238 22.5884 45.6465 22.5884H115.352ZM87.5352 87.6343H61.1328C64.2176 94.7544 71.3079 99.7358 79.5615 99.7358C90.6483 99.7358 99.6365 90.7483 99.6367 79.6616C99.6367 71.4079 94.6553 64.3167 87.5352 61.2319V87.6343ZM73.8506 73.9497H60.1875C60.5826 80.7306 66.207 86.1079 73.0869 86.1079C80.2231 86.1079 86.0078 80.3222 86.0078 73.186C86.0076 66.3064 80.6312 60.6828 73.8506 60.2876V73.9497ZM66.2441 60.2651C62.8871 60.2654 60.166 62.9871 60.166 66.3442C60.1661 69.7013 62.8871 72.4231 66.2441 72.4233C69.6014 72.4233 72.3232 69.7015 72.3232 66.3442C72.3232 62.9869 69.6014 60.2651 66.2441 60.2651Z" fill="black"/>
<rect x="35.998" y="23.0005" width="89" height="114" rx="10" stroke="black" stroke-width="4"/>
</svg>
