<svg width="160" height="160" viewBox="0 0 160 160" fill="none" xmlns="http://www.w3.org/2000/svg">
<line x1="73.9008" y1="36.7999" x2="87.1008" y2="36.7999" stroke="black" stroke-width="7.2" stroke-linecap="round"/>
<path opacity="0.3" d="M100.301 25.9995C106.928 25.9995 112.301 31.3731 112.301 38.0005V122C112.301 128.628 106.928 134 100.301 134H60.7012C54.0738 134 48.7012 128.627 48.7012 122V37.9995C48.7014 31.3723 54.0739 25.9995 60.7012 25.9995H100.301ZM83.9551 67.9253C81.9371 67.9253 80.7559 68.8281 80.5918 70.9937L79.9678 79.312V79.394C79.8695 80.9852 80.7721 82.3626 82.7568 82.3628C84.0693 82.3628 84.677 82.0681 85.5957 81.2642C86.3503 80.5916 87.3837 80.0005 88.6797 80.0005C90.9436 80.0005 92.535 81.5264 92.5352 83.6919C92.5352 85.9067 90.8784 87.5473 88.6309 87.5474C86.7277 87.5474 85.5789 86.6452 84.6602 85.2671C83.9384 84.365 83.2167 83.9879 82.085 83.9878C80.5592 83.9878 79.6562 84.8735 79.6562 86.3501C79.6563 86.9243 79.8039 87.4824 80.0664 88.0073C81.2805 90.4189 84.7588 92.1909 88.6797 92.1909C94.307 92.1909 98.2119 88.7618 98.2119 83.561C98.2119 79.0658 94.9964 75.9156 90.5176 75.9155C88.0405 75.9155 86.121 76.949 85.2021 78.5073H85.0869L85.5459 72.5522H94.6025C96.0463 72.5522 96.9648 71.6497 96.9648 70.2388C96.9647 68.828 96.0298 67.9253 94.6025 67.9253H83.9551ZM70.6826 67.5483C69.5014 67.5483 68.4839 67.6797 67.2207 68.5327L62.7412 71.5845C61.8883 72.175 61.5439 72.8479 61.5439 73.7173C61.544 74.9312 62.4134 75.8002 63.5781 75.8003C64.1522 75.8003 64.5134 75.6697 65.0547 75.2925L68.0078 73.2417H68.123V89.0073C68.123 90.8119 69.3368 91.977 71.125 91.9771C72.9133 91.9771 74.1113 90.812 74.1113 89.0073V70.9116C74.1113 68.8446 72.848 67.5485 70.6826 67.5483Z" fill="black"/>
<rect x="48.6992" y="26" width="63.6" height="108" rx="12" stroke="black" stroke-width="4"/>
</svg>
