<svg width="160" height="160" viewBox="0 0 160 160" fill="none" xmlns="http://www.w3.org/2000/svg">
<path d="M87.25 33H73.95C72.9835 33 72.2 32.2165 72.2 31.25V30.2C72.2 27.8804 70.3196 26 68 26H93C90.7909 26 89 27.7909 89 30V31.25C89 32.2165 88.2165 33 87.25 33Z" fill="black" stroke="black" stroke-width="4" stroke-linecap="round"/>
<path opacity="0.3" d="M102.004 26C106.422 26 110.004 29.5817 110.004 34V126C110.004 130.418 106.422 134 102.004 134H59C54.5817 134 51 130.418 51 126V34C51 29.5817 54.5817 26 59 26H102.004ZM87.2998 67.5645C86.135 67.5645 85.5438 67.9914 84.8711 68.9922L80.2119 75.9316H80.0977L75.6016 69.1895C74.8797 68.0738 74.0432 67.5645 72.9111 67.5645C71.1558 67.5645 69.8926 68.7462 69.8926 70.3867C69.8926 71.1906 70.1061 71.8635 70.8115 72.7822L75.9463 79.6074V79.7383L70.5977 87.1045C69.9742 87.9412 69.7451 88.5979 69.7451 89.3525C69.7452 90.8126 70.9752 91.9608 72.5664 91.9609C73.6984 91.9609 74.3555 91.5676 75.0938 90.5176L79.7197 83.9219H79.8516L84.625 90.4678C85.4125 91.5342 86.1352 91.9609 87.2344 91.9609C88.8911 91.9607 90.0722 90.8453 90.0723 89.2705C90.0723 88.4502 89.8424 87.7605 89.2354 87.0059L83.7393 79.7871V79.6729L89.3994 72.3223C89.9899 71.5677 90.2197 70.9114 90.2197 70.124C90.2195 68.6805 88.8582 67.5646 87.2998 67.5645Z" fill="black"/>
<rect x="51" y="26" width="59" height="108" rx="10" stroke="black" stroke-width="4"/>
</svg>
