<svg width="160" height="160" viewBox="0 0 160 160" fill="none" xmlns="http://www.w3.org/2000/svg">
<path d="M87.25 33H73.95C72.9835 33 72.2 32.2165 72.2 31.25V30.2C72.2 27.8804 70.3196 26 68 26H93C90.7909 26 89 27.7909 89 30V31.25C89 32.2165 88.2165 33 87.25 33Z" fill="black" stroke="black" stroke-width="4" stroke-linecap="round"/>
<path opacity="0.3" d="M100.301 25.9995C106.928 25.9995 112.301 31.3731 112.301 38.0005V122C112.301 128.628 106.928 134 100.301 134H60.7012C54.0738 134 48.7012 128.627 48.7012 122V37.9995C48.7014 31.3723 54.0739 25.9995 60.7012 25.9995H100.301ZM88.2207 67.3354C83.5616 67.3354 80.7722 69.5661 79.8369 71.8628C79.6236 72.3714 79.542 72.782 79.542 73.2905C79.542 74.6685 80.3782 75.6527 82.0186 75.6528C83.3475 75.6528 84.0695 75.1769 84.7422 73.9136C85.464 72.503 86.5634 71.8141 88.2529 71.814C90.3037 71.814 91.4854 72.8808 91.4854 74.5542C91.4852 76.2767 90.0739 77.4087 87.7607 77.4087H87.2197C85.7924 77.4087 85.0381 78.2453 85.0381 79.4429C85.0381 80.6733 85.7924 81.4937 87.2197 81.4937H87.7939C90.4189 81.4937 91.8955 82.5603 91.8955 84.5454C91.8955 86.2516 90.4518 87.4653 88.3848 87.4653C86.1372 87.4653 85.0707 86.5961 84.2012 85.1196C83.6105 84.1681 82.8721 83.7573 81.7236 83.7573C80.0832 83.7573 79.0822 84.7092 79.082 86.2183C79.082 86.6448 79.1811 87.1378 79.3779 87.5972C80.3296 89.8939 83.2167 92.1908 88.2529 92.1909C94.192 92.1909 98.0146 89.3354 98.0146 84.9058C98.0144 81.7069 95.751 79.6886 92.1748 79.3276V79.2134C94.8817 78.6719 97.0801 76.7357 97.0801 73.7007C97.08 69.6813 93.3721 67.3355 88.2207 67.3354ZM70.6328 67.5483C69.4516 67.5484 68.4341 67.6796 67.1709 68.5327L62.6924 71.5845C61.8393 72.1751 61.4951 72.8478 61.4951 73.7173C61.4952 74.9313 62.3645 75.8003 63.5293 75.8003C64.1034 75.8003 64.4645 75.6698 65.0059 75.2925L67.959 73.2417H68.0732V89.0073C68.0732 90.812 69.2879 91.9771 71.0762 91.9771C72.8643 91.977 74.0615 90.8119 74.0615 89.0073V70.9116C74.0615 68.8445 72.7984 67.5483 70.6328 67.5483Z" fill="black"/>
<rect x="48.6992" y="26" width="63.6" height="108" rx="12" stroke="black" stroke-width="4"/>
</svg>
