<svg width="160" height="160" viewBox="0 0 160 160" fill="none" xmlns="http://www.w3.org/2000/svg">
<path opacity="0.3" d="M106.998 40C107 40.6177 107 41.2823 107 42V118H54V42C54 41.2823 53.9997 40.6177 54.002 40H106.998ZM79.9004 67.3184C73.5677 67.3184 69.6299 72.077 69.6299 79.8535C69.6299 82.708 70.1886 85.1684 71.1729 87.0059C73.0432 90.5332 76.1107 92.1904 79.999 92.1904C85.495 92.1904 89.5145 88.6471 89.5146 83.627C89.5146 79.1973 86.4793 75.9814 81.8691 75.9814C78.67 75.9815 76.4062 77.5401 75.5039 79.7549H75.3887V79.4922C75.3559 75.0462 76.7998 71.9454 79.9004 71.9453C81.3277 71.9453 82.329 72.4208 83.3789 73.5527C84.2156 74.3894 84.8881 74.8818 86.0693 74.8818C87.6443 74.8818 88.5137 73.848 88.5137 72.5684C88.5136 72.1256 88.4156 71.7153 88.2188 71.2725C87.2179 69.1069 84.2972 67.3184 79.9004 67.3184ZM79.9658 80.1973C82.0985 80.1973 83.7232 81.7233 83.707 83.8887C83.6906 85.9558 82.0334 87.5644 79.917 87.5645C77.7842 87.5644 76.127 85.9394 76.127 83.8066C76.1272 81.6906 77.7841 80.1974 79.9658 80.1973Z" fill="black"/>
<path d="M99.998 26C104.969 26 108.998 30.0294 108.998 35V125C108.998 129.971 104.969 134 99.998 134H60.998C56.0275 134 51.998 129.971 51.998 125V35C51.998 30.0294 56.0275 26 60.998 26H99.998ZM80.5 122C78.0147 122 76 124.015 76 126.5C76 128.985 78.0147 131 80.5 131C82.9853 131 85 128.985 85 126.5C85 124.015 82.9853 122 80.5 122ZM57 40C56.4477 40 56 40.4477 56 41V117C56 117.552 56.4477 118 57 118H104C104.552 118 105 117.552 105 117V41C105 40.4477 104.552 40 104 40H57Z" fill="black"/>
</svg>
