<svg width="160" height="160" viewBox="0 0 160 160" fill="none" xmlns="http://www.w3.org/2000/svg">
<path opacity="0.3" d="M106.998 40C107 40.6177 107 41.2823 107 42V118H54V42C54 41.2823 53.9997 40.6177 54.002 40H106.998ZM75.126 67.9258C73.1082 67.9259 71.9268 68.8286 71.7627 70.9941L71.1397 79.3115V79.3936C71.0412 80.985 71.9436 82.3633 73.9287 82.3633C75.2412 82.3633 75.8479 82.0676 76.7666 81.2637C77.5213 80.591 78.5555 80.001 79.8516 80.001C82.1155 80.0011 83.707 81.5268 83.707 83.6924C83.707 85.9072 82.0494 87.5479 79.8018 87.5479C77.899 87.5477 76.7507 86.6454 75.832 85.2676C75.1102 84.3652 74.3879 83.9873 73.2559 83.9873C71.7304 83.9874 70.8283 84.8734 70.8281 86.3496C70.8281 86.9238 70.9758 87.4819 71.2383 88.0068C72.4524 90.4186 75.9305 92.1904 79.8516 92.1904C85.4788 92.1903 89.3838 88.7613 89.3838 83.5605C89.3836 79.0655 86.1672 75.916 81.6885 75.916C79.2113 75.9161 77.2918 76.9493 76.3731 78.5078H76.2588L76.7178 72.5527H85.7744C87.2179 72.5526 88.1367 71.65 88.1367 70.2393C88.1367 68.8285 87.2015 67.926 85.7744 67.9258H75.126Z" fill="black"/>
<path d="M99.998 26C104.969 26 108.998 30.0294 108.998 35V125C108.998 129.971 104.969 134 99.998 134H60.998C56.0275 134 51.998 129.971 51.998 125V35C51.998 30.0294 56.0275 26 60.998 26H99.998ZM80.5 122C78.0147 122 76 124.015 76 126.5C76 128.985 78.0147 131 80.5 131C82.9853 131 85 128.985 85 126.5C85 124.015 82.9853 122 80.5 122ZM57 40C56.4477 40 56 40.4477 56 41V117C56 117.552 56.4477 118 57 118H104C104.552 118 105 117.552 105 117V41C105 40.4477 104.552 40 104 40H57Z" fill="black"/>
</svg>
