<svg width="160" height="160" viewBox="0 0 160 160" fill="none" xmlns="http://www.w3.org/2000/svg">
<rect x="31" y="41" width="97" height="78" rx="10" stroke="black" stroke-width="4"/>
<circle opacity="0.3" cx="107" cy="59" r="6" fill="black"/>
<path opacity="0.3" d="M59.3457 75.1743C62.4356 72.1668 67.3536 72.1499 70.4648 75.1353L94.6152 98.3101C95.4122 99.0744 96.6787 99.0482 97.4434 98.2515C98.2076 97.4547 98.1811 96.189 97.3848 95.4243L90.7832 89.0894L97.4355 82.4712C100.567 79.355 105.633 79.368 108.749 82.4995L124.582 98.4116C125.165 98.9975 126.023 99.1461 126.745 98.8569L127 99.1079V114.244L122.178 119H37.1367L31 115.505V101.271L31.376 100.899C32.0605 101.123 32.8427 100.971 33.3945 100.434L59.3457 75.1743Z" fill="black"/>
</svg>
