<svg width="160" height="160" viewBox="0 0 160 160" fill="none" xmlns="http://www.w3.org/2000/svg">
<line opacity="0.3" x1="38" y1="92" x2="122" y2="92" stroke="black" stroke-width="8" stroke-linecap="round"/>
<line opacity="0.3" x1="38" y1="112" x2="82" y2="112" stroke="black" stroke-width="8" stroke-linecap="round"/>
<path d="M40.8772 68.4907C38.2896 68.4907 36.7058 67.0185 36.7058 64.5871C36.7058 63.8956 36.9289 62.8918 37.2858 61.9103L45.227 40.0943C46.4092 36.8152 48.3945 35.3206 51.5844 35.3206C54.9527 35.3206 56.9157 36.7483 58.1426 40.0943L66.1507 61.9103C66.5299 62.9587 66.6861 63.7171 66.6861 64.5648C66.6861 66.8624 64.9684 68.4907 62.5816 68.4907C60.2171 68.4907 58.9902 67.42 58.2764 64.7878L57.1834 61.2187H46.1639L45.0708 64.654C44.2901 67.3754 43.0632 68.4907 40.8772 68.4907ZM47.7922 55.0398H55.3988L51.629 42.6372H51.4506L47.7922 55.0398ZM76.8133 68.3569C72.2851 68.3569 68.6491 65.3678 68.6491 60.9734C68.6491 56.4228 72.1512 53.8798 78.4417 53.5006L84.1299 53.166V51.783C84.1299 49.8423 82.7469 48.7716 80.6724 48.7716C78.9771 48.7716 78.0402 49.2623 76.5233 50.913C75.6088 51.8276 74.605 52.2737 73.4004 52.2737C71.5043 52.2737 70.1659 51.0915 70.1659 49.3962C70.1659 48.8385 70.2328 48.437 70.4113 47.9685C71.4374 44.9571 75.4972 43.128 81.0739 43.128C87.5652 43.128 91.8704 46.4517 91.8704 51.3369V64.5425C91.8704 67.2416 90.242 68.5131 87.989 68.5131C85.8922 68.5131 84.3976 67.42 84.1745 65.1001V64.5425H84.0184C82.7023 66.9962 79.7355 68.3569 76.8133 68.3569ZM79.624 62.9141C82.0331 62.9141 84.1299 61.4418 84.1299 59.2781V57.6051L79.7132 57.895C77.6387 58.0512 76.4564 59.0104 76.4564 60.438C76.4564 61.9772 77.7279 62.9141 79.624 62.9141Z" fill="black"/>
</svg>
