<svg width="160" height="160" viewBox="0 0 160 160" fill="none" xmlns="http://www.w3.org/2000/svg">
<path opacity="0.3" d="M107 41C116.428 41 121.142 40.9998 124.071 43.9287C127 46.8576 127 51.5719 127 61V99C127 108.428 127 113.142 124.071 116.071C121.142 119 116.428 119 107 119H52C42.5719 119 37.8576 119 34.9287 116.071C31.9998 113.142 32 108.428 32 99V61C32 51.5719 31.9998 46.8576 34.9287 43.9287C37.8576 40.9998 42.5719 41 52 41H107ZM81 67.876C77.0622 65.6025 75.0932 64.4651 73.4775 64.6348C72.0683 64.7829 70.788 65.5225 69.9551 66.6689C69.0002 67.9833 69 70.2567 69 74.8037V85.1963C69 89.7433 69.0002 92.0167 69.9551 93.3311C70.788 94.4775 72.0683 95.2171 73.4775 95.3652C75.0932 95.5349 77.0622 94.3975 81 92.124L90 86.9277C93.9378 84.6542 95.9066 83.5173 96.5674 82.0332C97.1436 80.7388 97.1436 79.2612 96.5674 77.9668C95.9066 76.4827 93.9378 75.3458 90 73.0723L81 67.876Z" fill="black"/>
<rect x="32" y="41" width="95" height="78" rx="10" stroke="black" stroke-width="4"/>
</svg>
